<svg width="70" height="60" viewBox="0 0 70 60" fill="none" xmlns="http://www.w3.org/2000/svg">
<path d="M35.4822 60C54.5458 60 70 59.0974 70 57.984C70 56.8706 54.5458 55.968 35.4822 55.968C16.4185 55.968 0.964355 56.8706 0.964355 57.984C0.964355 59.0974 16.4185 60 35.4822 60Z" fill="#F5F5F5" fill-opacity="0.5"/>
<path opacity="0.6" d="M60.1929 5.42246L52.5813 17.0122L52.2466 17.5219L51.5845 17.8296L28.0276 28.777L30.3553 36.7515L30.8878 38.5747L29.0422 40.0993L13.1492 55.5441H0L23.777 35.7961L22.3366 27.9539L21.9449 25.8195L23.7859 24.9716L48.8922 13.4115L57.0694 3.29567L54.8743 2.86159L61.7705 0L61.4165 7.45862L60.1929 5.42246Z" fill="#01BAB3"/>
<path d="M56.216 54.8239H43.6132C43.4889 54.8239 43.3882 54.9247 43.3882 55.049V57.9207C43.3882 58.045 43.4889 58.1458 43.6132 58.1458H56.216C56.3403 58.1458 56.4411 58.045 56.4411 57.9207V55.049C56.4411 54.9247 56.3403 54.8239 56.216 54.8239Z" fill="#FFE162"/>
<path opacity="0.2" d="M44.4877 55.0162H43.9712V57.9837H44.4877V55.0162Z" fill="black"/>
<path opacity="0.2" d="M45.6627 55.0019H45.2871V57.9694H45.6627V55.0019Z" fill="black"/>
<path opacity="0.2" d="M46.7422 55.0162H46.5537V57.9837H46.7422V55.0162Z" fill="black"/>
<path opacity="0.2" d="M48.1972 55.0019H48.1035V57.9694H48.1972V55.0019Z" fill="black"/>
<path opacity="0.2" d="M55.3405 57.9686H55.8569V55.001H55.3405V57.9686Z" fill="black"/>
<path opacity="0.2" d="M54.1673 57.9832H54.543V55.0157H54.1673V57.9832Z" fill="black"/>
<path opacity="0.2" d="M53.0859 57.9686H53.2744V55.001H53.0859V57.9686Z" fill="black"/>
<path opacity="0.2" d="M51.6324 57.9832H51.7261V55.0157H51.6324V57.9832Z" fill="black"/>
<path opacity="0.2" d="M49.8911 57.9832H49.938V55.0157H49.8911V57.9832Z" fill="black"/>
<path opacity="0.2" d="M56.0933 55.3293H43.7643C43.7227 55.3293 43.6828 55.3128 43.6534 55.2835C43.6239 55.2541 43.6074 55.2143 43.6074 55.1727C43.6075 55.1312 43.624 55.0914 43.6534 55.0621C43.6828 55.0327 43.7227 55.0162 43.7643 55.0162H56.0928C56.1343 55.0162 56.1742 55.0327 56.2035 55.0621C56.2329 55.0915 56.2494 55.1313 56.2494 55.1727C56.2495 55.2142 56.2331 55.2539 56.2038 55.2833C56.1745 55.3126 56.1348 55.3292 56.0933 55.3293Z" fill="white"/>
<path d="M56.5725 51.5097H43.9697C43.8454 51.5097 43.7446 51.6105 43.7446 51.7348V54.6065C43.7446 54.7308 43.8454 54.8316 43.9697 54.8316H56.5725C56.6968 54.8316 56.7975 54.7308 56.7975 54.6065V51.7348C56.7975 51.6105 56.6968 51.5097 56.5725 51.5097Z" fill="#FFE162"/>
<path opacity="0.2" d="M44.8461 51.7027H44.3296V54.6702H44.8461V51.7027Z" fill="black"/>
<path opacity="0.2" d="M46.0197 51.6881H45.644V54.6556H46.0197V51.6881Z" fill="black"/>
<path opacity="0.2" d="M47.1001 51.7023H46.9116V54.6699H47.1001V51.7023Z" fill="black"/>
<path opacity="0.2" d="M48.5541 51.6881H48.4604V54.6556H48.5541V51.6881Z" fill="black"/>
<path opacity="0.2" d="M55.6989 54.6551H56.2153V51.6876H55.6989V54.6551Z" fill="black"/>
<path opacity="0.2" d="M54.5238 54.6694H54.8994V51.7019H54.5238V54.6694Z" fill="black"/>
<path opacity="0.2" d="M53.4433 54.6551H53.6318V51.6876H53.4433V54.6551Z" fill="black"/>
<path opacity="0.2" d="M51.9893 54.6694H52.083V51.7019H51.9893V54.6694Z" fill="black"/>
<path opacity="0.2" d="M50.2475 54.6694H50.2944V51.7019H50.2475V54.6694Z" fill="black"/>
<path opacity="0.2" d="M56.45 52.0155H44.1217C44.0801 52.0155 44.0402 51.999 44.0108 51.9697C43.9814 51.9403 43.9648 51.9005 43.9648 51.8589C43.9648 51.8384 43.9689 51.818 43.9767 51.799C43.9846 51.78 43.9962 51.7627 44.0107 51.7482C44.0253 51.7336 44.0426 51.7221 44.0616 51.7142C44.0807 51.7064 44.1011 51.7023 44.1217 51.7024H56.45C56.4916 51.7024 56.5315 51.7189 56.5609 51.7482C56.5903 51.7776 56.6068 51.8174 56.6068 51.8589C56.6068 51.9005 56.5903 51.9402 56.5609 51.9696C56.5315 51.999 56.4916 52.0155 56.45 52.0155Z" fill="white"/>
<path d="M56.5725 48.1948H43.9697C43.8454 48.1948 43.7446 48.2956 43.7446 48.4198V51.2916C43.7446 51.4159 43.8454 51.5166 43.9697 51.5166H56.5725C56.6968 51.5166 56.7975 51.4159 56.7975 51.2916V48.4198C56.7975 48.2956 56.6968 48.1948 56.5725 48.1948Z" fill="#FFE162"/>
<path opacity="0.2" d="M44.8451 48.3868H44.3286V51.3543H44.8451V48.3868Z" fill="black"/>
<path opacity="0.2" d="M46.0197 48.3717H45.644V51.3392H46.0197V48.3717Z" fill="black"/>
<path opacity="0.2" d="M47.0996 48.3867H46.9111V51.3542H47.0996V48.3867Z" fill="black"/>
<path opacity="0.2" d="M48.5541 48.3717H48.4604V51.3392H48.5541V48.3717Z" fill="black"/>
<path opacity="0.2" d="M55.6984 51.3391H56.2148V48.3716H55.6984V51.3391Z" fill="black"/>
<path opacity="0.2" d="M54.5238 51.3534H54.8994V48.3858H54.5238V51.3534Z" fill="black"/>
<path opacity="0.2" d="M53.4433 51.3391H53.6318V48.3716H53.4433V51.3391Z" fill="black"/>
<path opacity="0.2" d="M51.9884 51.3534H52.082V48.3858H51.9884V51.3534Z" fill="black"/>
<path opacity="0.2" d="M50.2475 51.3545H50.2944V48.3869H50.2475V51.3545Z" fill="black"/>
<path opacity="0.2" d="M56.45 48.6998H44.1217C44.1011 48.6999 44.0807 48.6958 44.0616 48.688C44.0426 48.6801 44.0253 48.6686 44.0107 48.654C43.9962 48.6395 43.9846 48.6222 43.9767 48.6032C43.9689 48.5842 43.9648 48.5638 43.9648 48.5433C43.9648 48.5017 43.9814 48.4619 44.0108 48.4325C44.0402 48.4032 44.0801 48.3867 44.1217 48.3867H56.45C56.4916 48.3867 56.5315 48.4032 56.5609 48.4326C56.5903 48.462 56.6068 48.5017 56.6068 48.5433C56.6068 48.5848 56.5903 48.6246 56.5609 48.654C56.5315 48.6833 56.4916 48.6998 56.45 48.6998Z" fill="white"/>
<path d="M56.216 44.881H43.6132C43.4889 44.881 43.3882 44.9817 43.3882 45.106V47.9777C43.3882 48.102 43.4889 48.2028 43.6132 48.2028H56.216C56.3403 48.2028 56.4411 48.102 56.4411 47.9777V45.106C56.4411 44.9817 56.3403 44.881 56.216 44.881Z" fill="#FFE162"/>
<path opacity="0.2" d="M44.4877 45.0725H43.9712V48.04H44.4877V45.0725Z" fill="black"/>
<path opacity="0.2" d="M45.6627 45.0582H45.2871V48.0257H45.6627V45.0582Z" fill="black"/>
<path opacity="0.2" d="M46.7422 45.0724H46.5537V48.04H46.7422V45.0724Z" fill="black"/>
<path opacity="0.2" d="M48.1972 45.0582H48.1035V48.0257H48.1972V45.0582Z" fill="black"/>
<path opacity="0.2" d="M55.3405 48.0249H55.8569V45.0573H55.3405V48.0249Z" fill="black"/>
<path opacity="0.2" d="M54.1673 48.0395H54.543V45.072H54.1673V48.0395Z" fill="black"/>
<path opacity="0.2" d="M53.0859 48.0249H53.2744V45.0573H53.0859V48.0249Z" fill="black"/>
<path opacity="0.2" d="M51.6324 48.0395H51.7261V45.072H51.6324V48.0395Z" fill="black"/>
<path opacity="0.2" d="M49.8911 48.0403H49.938V45.0727H49.8911V48.0403Z" fill="black"/>
<path opacity="0.2" d="M56.0933 45.3851H43.7643C43.7227 45.3851 43.6828 45.3686 43.6534 45.3393C43.624 45.31 43.6075 45.2702 43.6074 45.2287C43.6074 45.1872 43.6239 45.1473 43.6534 45.118C43.6828 45.0886 43.7227 45.0721 43.7643 45.0721H56.0928C56.1133 45.0721 56.1337 45.0762 56.1528 45.084C56.1718 45.0919 56.1891 45.1034 56.2036 45.118C56.2182 45.1325 56.2297 45.1498 56.2375 45.1688C56.2454 45.1878 56.2494 45.2081 56.2494 45.2287C56.2494 45.2701 56.233 45.3098 56.2037 45.3391C56.1745 45.3684 56.1347 45.385 56.0933 45.3851Z" fill="white"/>
<path d="M55.6819 41.5667H43.079C42.9548 41.5667 42.854 41.6675 42.854 41.7918V44.6635C42.854 44.7878 42.9548 44.8886 43.079 44.8886H55.6819C55.8061 44.8886 55.9069 44.7878 55.9069 44.6635V41.7918C55.9069 41.6675 55.8061 41.5667 55.6819 41.5667Z" fill="#FFE162"/>
<path opacity="0.2" d="M43.9544 41.7578H43.438V44.7254H43.9544V41.7578Z" fill="black"/>
<path opacity="0.2" d="M45.1281 41.7436H44.7524V44.7112H45.1281V41.7436Z" fill="black"/>
<path opacity="0.2" d="M46.209 41.7579H46.0205V44.7254H46.209V41.7579Z" fill="black"/>
<path opacity="0.2" d="M47.663 41.7436H47.5693V44.7112H47.663V41.7436Z" fill="black"/>
<path opacity="0.2" d="M54.8078 44.7103H55.3242V41.7428H54.8078V44.7103Z" fill="black"/>
<path opacity="0.2" d="M53.6327 44.7249H54.0083V41.7574H53.6327V44.7249Z" fill="black"/>
<path opacity="0.2" d="M52.5527 44.7103H52.7412V41.7428H52.5527V44.7103Z" fill="black"/>
<path opacity="0.2" d="M51.0977 44.7249H51.1914V41.7574H51.0977V44.7249Z" fill="black"/>
<path opacity="0.2" d="M49.3569 44.726H49.4038V41.7585H49.3569V44.726Z" fill="black"/>
<path opacity="0.2" d="M55.5581 42.0711H43.2294C43.1879 42.071 43.148 42.0545 43.1186 42.0251C43.0893 41.9958 43.0728 41.956 43.0728 41.9145C43.0728 41.873 43.0893 41.8332 43.1186 41.8038C43.148 41.7745 43.1879 41.758 43.2294 41.7579H55.5579C55.5995 41.758 55.6394 41.7745 55.6688 41.8038C55.6982 41.8332 55.7147 41.873 55.7148 41.9145C55.7147 41.956 55.6982 41.9957 55.6688 42.0251C55.6395 42.0544 55.5996 42.071 55.5581 42.0711Z" fill="white"/>
<path d="M56.216 38.2529H43.6132C43.4889 38.2529 43.3882 38.3537 43.3882 38.478V41.3497C43.3882 41.474 43.4889 41.5747 43.6132 41.5747H56.216C56.3403 41.5747 56.4411 41.474 56.4411 41.3497V38.478C56.4411 38.3537 56.3403 38.2529 56.216 38.2529Z" fill="#FFE162"/>
<path opacity="0.2" d="M44.4877 38.4436H43.9712V41.4111H44.4877V38.4436Z" fill="black"/>
<path opacity="0.2" d="M45.6627 38.4294H45.2871V41.397H45.6627V38.4294Z" fill="black"/>
<path opacity="0.2" d="M46.7422 38.4441H46.5537V41.4116H46.7422V38.4441Z" fill="black"/>
<path opacity="0.2" d="M48.1977 38.4294H48.104V41.397H48.1977V38.4294Z" fill="black"/>
<path opacity="0.2" d="M55.3405 41.3965H55.8569V38.4289H55.3405V41.3965Z" fill="black"/>
<path opacity="0.2" d="M54.1673 41.4107H54.543V38.4432H54.1673V41.4107Z" fill="black"/>
<path opacity="0.2" d="M53.0864 41.3965H53.2749V38.4289H53.0864V41.3965Z" fill="black"/>
<path opacity="0.2" d="M51.6324 41.4107H51.7261V38.4432H51.6324V41.4107Z" fill="black"/>
<path opacity="0.2" d="M49.8911 41.4107H49.938V38.4432H49.8911V41.4107Z" fill="black"/>
<path opacity="0.2" d="M56.0933 38.757H43.7643C43.7227 38.757 43.6828 38.7405 43.6534 38.7112C43.6239 38.6818 43.6074 38.642 43.6074 38.6005C43.6075 38.559 43.624 38.5192 43.6534 38.4899C43.6828 38.4605 43.7227 38.4441 43.7643 38.4441H56.0928C56.1343 38.4441 56.1742 38.4605 56.2035 38.4899C56.2329 38.5192 56.2494 38.559 56.2494 38.6005C56.2495 38.6419 56.2331 38.6816 56.2038 38.711C56.1745 38.7403 56.1348 38.7569 56.0933 38.757Z" fill="white"/>
<path d="M56.216 34.938H43.6132C43.4889 34.938 43.3882 35.0387 43.3882 35.163V38.0348C43.3882 38.1591 43.4889 38.2598 43.6132 38.2598H56.216C56.3403 38.2598 56.4411 38.1591 56.4411 38.0348V35.163C56.4411 35.0387 56.3403 34.938 56.216 34.938Z" fill="#FFE162"/>
<path opacity="0.2" d="M44.4877 35.1298H43.9712V38.0973H44.4877V35.1298Z" fill="black"/>
<path opacity="0.2" d="M45.6627 35.1156H45.2871V38.0831H45.6627V35.1156Z" fill="black"/>
<path opacity="0.2" d="M46.7422 35.1299H46.5537V38.0974H46.7422V35.1299Z" fill="black"/>
<path opacity="0.2" d="M48.1972 35.1156H48.1035V38.0831H48.1972V35.1156Z" fill="black"/>
<path opacity="0.2" d="M55.3405 38.0826H55.8569V35.1151H55.3405V38.0826Z" fill="black"/>
<path opacity="0.2" d="M54.1673 38.0969H54.543V35.1294H54.1673V38.0969Z" fill="black"/>
<path opacity="0.2" d="M53.0859 38.0826H53.2744V35.1151H53.0859V38.0826Z" fill="black"/>
<path opacity="0.2" d="M51.6324 38.0969H51.7261V35.1294H51.6324V38.0969Z" fill="black"/>
<path opacity="0.2" d="M49.8911 38.0977H49.938V35.1301H49.8911V38.0977Z" fill="black"/>
<path opacity="0.2" d="M56.0933 35.443H43.7643C43.7227 35.443 43.6828 35.4265 43.6534 35.3971C43.624 35.3678 43.6075 35.328 43.6074 35.2865C43.6075 35.2449 43.624 35.2051 43.6534 35.1758C43.6828 35.1464 43.7227 35.1299 43.7643 35.1299H56.0928C56.1343 35.1299 56.1742 35.1464 56.2035 35.1758C56.2329 35.2052 56.2494 35.245 56.2494 35.2865C56.2494 35.3279 56.233 35.3676 56.2037 35.3969C56.1745 35.4263 56.1348 35.4428 56.0933 35.443Z" fill="white"/>
<path d="M56.7507 31.6238H44.1479C44.0236 31.6238 43.9229 31.7245 43.9229 31.8488V34.7206C43.9229 34.8449 44.0236 34.9456 44.1479 34.9456H56.7507C56.875 34.9456 56.9757 34.8449 56.9757 34.7206V31.8488C56.9757 31.7245 56.875 31.6238 56.7507 31.6238Z" fill="#FFE162"/>
<path opacity="0.2" d="M45.0233 31.8151H44.5068V34.7826H45.0233V31.8151Z" fill="black"/>
<path opacity="0.2" d="M46.1964 31.8007H45.8208V34.7682H46.1964V31.8007Z" fill="black"/>
<path opacity="0.2" d="M47.2774 31.8149H47.0889V34.7824H47.2774V31.8149Z" fill="black"/>
<path opacity="0.2" d="M48.7323 31.8007H48.6387V34.7682H48.7323V31.8007Z" fill="black"/>
<path opacity="0.2" d="M55.8756 34.7684H56.3921V31.8009H55.8756V34.7684Z" fill="black"/>
<path opacity="0.2" d="M54.702 34.7827H55.0776V31.8152H54.702V34.7827Z" fill="black"/>
<path opacity="0.2" d="M53.6211 34.7684H53.8096V31.8009H53.6211V34.7684Z" fill="black"/>
<path opacity="0.2" d="M52.1681 34.7827H52.2617V31.8152H52.1681V34.7827Z" fill="black"/>
<path opacity="0.2" d="M50.4262 34.7834H50.4731V31.8159H50.4262V34.7834Z" fill="black"/>
<path opacity="0.2" d="M56.6274 32.1294H44.2989C44.2573 32.1294 44.2174 32.1129 44.188 32.0835C44.1586 32.0542 44.1421 32.0143 44.1421 31.9728C44.1421 31.9313 44.1587 31.8915 44.1881 31.8622C44.2175 31.8329 44.2574 31.8164 44.2989 31.8164H56.6274C56.669 31.8164 56.7088 31.8329 56.7382 31.8622C56.7676 31.8915 56.7841 31.9313 56.7841 31.9728C56.7841 31.9934 56.7801 32.0137 56.7722 32.0327C56.7644 32.0517 56.7528 32.069 56.7383 32.0835C56.7237 32.0981 56.7064 32.1096 56.6874 32.1175C56.6684 32.1253 56.648 32.1294 56.6274 32.1294Z" fill="white"/>
<path d="M55.8601 28.3099H43.2573C43.133 28.3099 43.0322 28.4107 43.0322 28.535V31.4067C43.0322 31.531 43.133 31.6318 43.2573 31.6318H55.8601C55.9844 31.6318 56.0851 31.531 56.0851 31.4067V28.535C56.0851 28.4107 55.9844 28.3099 55.8601 28.3099Z" fill="#FFE162"/>
<path opacity="0.2" d="M44.1322 28.5008H43.6157V31.4683H44.1322V28.5008Z" fill="black"/>
<path opacity="0.2" d="M45.3063 28.4865H44.9307V31.454H45.3063V28.4865Z" fill="black"/>
<path opacity="0.2" d="M46.3877 28.5011H46.1992V31.4686H46.3877V28.5011Z" fill="black"/>
<path opacity="0.2" d="M47.8422 28.4865H47.7485V31.454H47.8422V28.4865Z" fill="black"/>
<path opacity="0.2" d="M54.986 31.4535H55.5024V28.486H54.986V31.4535Z" fill="black"/>
<path opacity="0.2" d="M53.8119 31.4678H54.1875V28.5002H53.8119V31.4678Z" fill="black"/>
<path opacity="0.2" d="M52.7309 31.4535H52.9194V28.486H52.7309V31.4535Z" fill="black"/>
<path opacity="0.2" d="M51.2774 31.4678H51.3711V28.5002H51.2774V31.4678Z" fill="black"/>
<path opacity="0.2" d="M49.5351 31.4692H49.582V28.5017H49.5351V31.4692Z" fill="black"/>
<path opacity="0.2" d="M55.7375 28.8143H43.4088C43.3672 28.8143 43.3273 28.7978 43.2979 28.7684C43.2685 28.739 43.252 28.6992 43.252 28.6577C43.2519 28.6371 43.256 28.6167 43.2638 28.5977C43.2717 28.5787 43.2833 28.5615 43.2978 28.5469C43.3124 28.5324 43.3297 28.5208 43.3487 28.513C43.3678 28.5051 43.3882 28.5011 43.4088 28.5011H55.7371C55.7577 28.5011 55.7781 28.5051 55.7972 28.513C55.8162 28.5208 55.8335 28.5324 55.8481 28.5469C55.8626 28.5615 55.8742 28.5787 55.8821 28.5977C55.8899 28.6167 55.894 28.6371 55.894 28.6577C55.894 28.6991 55.8775 28.7389 55.8481 28.7683C55.8188 28.7976 55.779 28.8142 55.7375 28.8143Z" fill="white"/>
<path d="M55.5032 24.9957H42.9003C42.776 24.9957 42.6753 25.0965 42.6753 25.2208V28.0925C42.6753 28.2168 42.776 28.3176 42.9003 28.3176H55.5032C55.6274 28.3176 55.7282 28.2168 55.7282 28.0925V25.2208C55.7282 25.0965 55.6274 24.9957 55.5032 24.9957Z" fill="#FFE162"/>
<path opacity="0.2" d="M43.7757 25.1869H43.2593V28.1545H43.7757V25.1869Z" fill="black"/>
<path opacity="0.2" d="M44.9489 25.1726H44.5732V28.1401H44.9489V25.1726Z" fill="black"/>
<path opacity="0.2" d="M46.0298 25.1869H45.8413V28.1544H46.0298V25.1869Z" fill="black"/>
<path opacity="0.2" d="M47.4853 25.1726H47.3916V28.1401H47.4853V25.1726Z" fill="black"/>
<path opacity="0.2" d="M54.629 28.1407H55.1455V25.1732H54.629V28.1407Z" fill="black"/>
<path opacity="0.2" d="M53.4549 28.1539H53.8306V25.1864H53.4549V28.1539Z" fill="black"/>
<path opacity="0.2" d="M52.374 28.1407H52.5625V25.1732H52.374V28.1407Z" fill="black"/>
<path opacity="0.2" d="M50.919 28.1539H51.0127V25.1864H50.919V28.1539Z" fill="black"/>
<path opacity="0.2" d="M49.1784 28.1539H49.2251V25.1864H49.1784V28.1539Z" fill="black"/>
<path opacity="0.2" d="M55.3804 25.5H43.0519C43.0313 25.5001 43.0109 25.496 42.9918 25.4882C42.9728 25.4803 42.9555 25.4688 42.9409 25.4542C42.9263 25.4397 42.9148 25.4224 42.9069 25.4034C42.899 25.3844 42.895 25.364 42.895 25.3435C42.895 25.3019 42.9115 25.2621 42.941 25.2328C42.9704 25.2034 43.0103 25.1869 43.0519 25.1869H55.3804C55.422 25.1869 55.4618 25.2034 55.4913 25.2328C55.5207 25.2621 55.5372 25.3019 55.5372 25.3435C55.5372 25.364 55.5332 25.3844 55.5253 25.4034C55.5174 25.4224 55.5059 25.4397 55.4913 25.4542C55.4767 25.4688 55.4594 25.4803 55.4404 25.4882C55.4214 25.496 55.401 25.5001 55.3804 25.5Z" fill="white"/>
<path d="M40.1809 54.8243H27.5781C27.4538 54.8243 27.353 54.925 27.353 55.0493V57.9211C27.353 58.0454 27.4538 58.1461 27.5781 58.1461H40.1809C40.3052 58.1461 40.4059 58.0454 40.4059 57.9211V55.0493C40.4059 54.925 40.3052 54.8243 40.1809 54.8243Z" fill="#FFE162"/>
<path opacity="0.2" d="M28.4525 55.0165H27.936V57.984H28.4525V55.0165Z" fill="black"/>
<path opacity="0.2" d="M29.6261 55.0023H29.2505V57.9698H29.6261V55.0023Z" fill="black"/>
<path opacity="0.2" d="M30.7071 55.0165H30.5186V57.984H30.7071V55.0165Z" fill="black"/>
<path opacity="0.2" d="M32.162 55.0023H32.0684V57.9698H32.162V55.0023Z" fill="black"/>
<path opacity="0.2" d="M39.3053 57.9689H39.8218V55.0014H39.3053V57.9689Z" fill="black"/>
<path opacity="0.2" d="M38.1317 57.9836H38.5073V55.0161H38.1317V57.9836Z" fill="black"/>
<path opacity="0.2" d="M37.0507 57.9689H37.2393V55.0014H37.0507V57.9689Z" fill="black"/>
<path opacity="0.2" d="M35.5973 57.9836H35.6909V55.0161H35.5973V57.9836Z" fill="black"/>
<path opacity="0.2" d="M33.8559 57.9836H33.9028V55.0161H33.8559V57.9836Z" fill="black"/>
<path opacity="0.2" d="M40.0576 55.3297H27.7286C27.708 55.3297 27.6876 55.3257 27.6686 55.3178C27.6495 55.31 27.6322 55.2984 27.6177 55.2839C27.6031 55.2693 27.5915 55.2521 27.5837 55.2331C27.5758 55.2141 27.5718 55.1937 27.5718 55.1731C27.5718 55.1316 27.5883 55.0918 27.6177 55.0624C27.6471 55.033 27.687 55.0165 27.7286 55.0165H40.0576C40.0992 55.0166 40.1391 55.0331 40.1685 55.0625C40.1979 55.0918 40.2144 55.1316 40.2145 55.1731C40.2145 55.2146 40.198 55.2545 40.1686 55.2838C40.1391 55.3132 40.0992 55.3297 40.0576 55.3297Z" fill="white"/>
<path d="M39.6462 51.5097H27.0434C26.9191 51.5097 26.8184 51.6105 26.8184 51.7348V54.6065C26.8184 54.7308 26.9191 54.8316 27.0434 54.8316H39.6462C39.7705 54.8316 39.8712 54.7308 39.8712 54.6065V51.7348C39.8712 51.6105 39.7705 51.5097 39.6462 51.5097Z" fill="#FFE162"/>
<path opacity="0.2" d="M27.9183 51.7027H27.4019V54.6702H27.9183V51.7027Z" fill="black"/>
<path opacity="0.2" d="M29.0924 51.6881H28.7168V54.6556H29.0924V51.6881Z" fill="black"/>
<path opacity="0.2" d="M30.1739 51.7023H29.9854V54.6699H30.1739V51.7023Z" fill="black"/>
<path opacity="0.2" d="M31.6274 51.6881H31.5337V54.6556H31.6274V51.6881Z" fill="black"/>
<path opacity="0.2" d="M38.7716 54.6551H39.2881V51.6876H38.7716V54.6551Z" fill="black"/>
<path opacity="0.2" d="M37.5985 54.6694H37.9741V51.7019H37.5985V54.6694Z" fill="black"/>
<path opacity="0.2" d="M36.5175 54.6551H36.7061V51.6876H36.5175V54.6551Z" fill="black"/>
<path opacity="0.2" d="M35.0626 54.6694H35.1562V51.7019H35.0626V54.6694Z" fill="black"/>
<path opacity="0.2" d="M33.3212 54.6694H33.3682V51.7019H33.3212V54.6694Z" fill="black"/>
<path opacity="0.2" d="M39.5228 52.0155H27.1944C27.1528 52.0155 27.113 51.999 27.0835 51.9697C27.0541 51.9403 27.0376 51.9005 27.0376 51.8589C27.0376 51.8384 27.0416 51.818 27.0495 51.799C27.0574 51.78 27.0689 51.7627 27.0835 51.7482C27.0981 51.7336 27.1154 51.7221 27.1344 51.7142C27.1534 51.7064 27.1738 51.7023 27.1944 51.7024H39.5228C39.5434 51.7023 39.5638 51.7064 39.5828 51.7142C39.6018 51.7221 39.6191 51.7336 39.6337 51.7482C39.6483 51.7627 39.6598 51.78 39.6677 51.799C39.6756 51.818 39.6796 51.8384 39.6796 51.8589C39.6796 51.9005 39.6631 51.9403 39.6337 51.9697C39.6042 51.999 39.5644 52.0155 39.5228 52.0155Z" fill="white"/>
<path d="M40.1809 48.1948H27.5781C27.4538 48.1948 27.353 48.2956 27.353 48.4198V51.2916C27.353 51.4159 27.4538 51.5166 27.5781 51.5166H40.1809C40.3052 51.5166 40.4059 51.4159 40.4059 51.2916V48.4198C40.4059 48.2956 40.3052 48.1948 40.1809 48.1948Z" fill="#FFE162"/>
<path opacity="0.2" d="M28.4525 48.3867H27.936V51.3542H28.4525V48.3867Z" fill="black"/>
<path opacity="0.2" d="M29.6261 48.3717H29.2505V51.3392H29.6261V48.3717Z" fill="black"/>
<path opacity="0.2" d="M30.7071 48.3867H30.5186V51.3542H30.7071V48.3867Z" fill="black"/>
<path opacity="0.2" d="M32.162 48.3717H32.0684V51.3392H32.162V48.3717Z" fill="black"/>
<path opacity="0.2" d="M39.3053 51.3391H39.8218V48.3716H39.3053V51.3391Z" fill="black"/>
<path opacity="0.2" d="M38.1317 51.3534H38.5073V48.3858H38.1317V51.3534Z" fill="black"/>
<path opacity="0.2" d="M37.0507 51.3391H37.2393V48.3716H37.0507V51.3391Z" fill="black"/>
<path opacity="0.2" d="M35.5973 51.3534H35.6909V48.3858H35.5973V51.3534Z" fill="black"/>
<path opacity="0.2" d="M33.8559 51.3545H33.9028V48.3869H33.8559V51.3545Z" fill="black"/>
<path opacity="0.2" d="M40.0576 48.6998H27.7286C27.708 48.6999 27.6876 48.6958 27.6686 48.688C27.6495 48.6801 27.6322 48.6686 27.6177 48.654C27.6031 48.6395 27.5915 48.6222 27.5837 48.6032C27.5758 48.5842 27.5718 48.5638 27.5718 48.5433C27.5718 48.5017 27.5883 48.4619 27.6177 48.4325C27.6471 48.4032 27.687 48.3867 27.7286 48.3867H40.0576C40.0992 48.3867 40.1391 48.4032 40.1685 48.4326C40.1979 48.462 40.2144 48.5017 40.2145 48.5433C40.2145 48.5848 40.198 48.6246 40.1686 48.654C40.1391 48.6833 40.0992 48.6998 40.0576 48.6998Z" fill="white"/>
<path d="M39.8249 44.881H27.2221C27.0978 44.881 26.9971 44.9817 26.9971 45.106V47.9777C26.9971 48.102 27.0978 48.2028 27.2221 48.2028H39.8249C39.9492 48.2028 40.05 48.102 40.05 47.9777V45.106C40.05 44.9817 39.9492 44.881 39.8249 44.881Z" fill="#FFE162"/>
<path opacity="0.2" d="M28.0965 45.0725H27.5801V48.04H28.0965V45.0725Z" fill="black"/>
<path opacity="0.2" d="M29.2702 45.0582H28.8945V48.0257H29.2702V45.0582Z" fill="black"/>
<path opacity="0.2" d="M30.3516 45.0724H30.1631V48.04H30.3516V45.0724Z" fill="black"/>
<path opacity="0.2" d="M31.8061 45.0582H31.7124V48.0257H31.8061V45.0582Z" fill="black"/>
<path opacity="0.2" d="M38.9494 48.0249H39.4658V45.0573H38.9494V48.0249Z" fill="black"/>
<path opacity="0.2" d="M37.7762 48.0395H38.1519V45.072H37.7762V48.0395Z" fill="black"/>
<path opacity="0.2" d="M36.6953 48.0249H36.8838V45.0573H36.6953V48.0249Z" fill="black"/>
<path opacity="0.2" d="M35.2418 48.0395H35.3354V45.072H35.2418V48.0395Z" fill="black"/>
<path opacity="0.2" d="M33.5 48.0403H33.5469V45.0727H33.5V48.0403Z" fill="black"/>
<path opacity="0.2" d="M39.701 45.3851H27.3725C27.3309 45.3851 27.2911 45.3686 27.2617 45.3393C27.2323 45.31 27.2158 45.2702 27.2158 45.2287C27.2158 45.2081 27.2198 45.1878 27.2277 45.1688C27.2356 45.1498 27.2471 45.1325 27.2616 45.118C27.2762 45.1034 27.2935 45.0919 27.3125 45.084C27.3315 45.0762 27.3519 45.0721 27.3725 45.0721H39.701C39.7216 45.0721 39.7419 45.0762 39.761 45.084C39.78 45.0919 39.7973 45.1034 39.8118 45.118C39.8264 45.1325 39.8379 45.1498 39.8458 45.1688C39.8536 45.1878 39.8577 45.2081 39.8576 45.2287C39.8576 45.2702 39.8411 45.31 39.8118 45.3393C39.7824 45.3686 39.7425 45.3851 39.701 45.3851Z" fill="white"/>
<path d="M39.8249 41.5667H27.2221C27.0978 41.5667 26.9971 41.6675 26.9971 41.7918V44.6635C26.9971 44.7878 27.0978 44.8886 27.2221 44.8886H39.8249C39.9492 44.8886 40.05 44.7878 40.05 44.6635V41.7918C40.05 41.6675 39.9492 41.5667 39.8249 41.5667Z" fill="#FFE162"/>
<path opacity="0.2" d="M28.0965 41.7578H27.5801V44.7254H28.0965V41.7578Z" fill="black"/>
<path opacity="0.2" d="M29.2702 41.7436H28.8945V44.7112H29.2702V41.7436Z" fill="black"/>
<path opacity="0.2" d="M30.3516 41.7579H30.1631V44.7254H30.3516V41.7579Z" fill="black"/>
<path opacity="0.2" d="M31.8061 41.7436H31.7124V44.7112H31.8061V41.7436Z" fill="black"/>
<path opacity="0.2" d="M38.9494 44.7103H39.4658V41.7428H38.9494V44.7103Z" fill="black"/>
<path opacity="0.2" d="M37.7762 44.7249H38.1519V41.7574H37.7762V44.7249Z" fill="black"/>
<path opacity="0.2" d="M36.6953 44.7103H36.8838V41.7428H36.6953V44.7103Z" fill="black"/>
<path opacity="0.2" d="M35.2418 44.7249H35.3354V41.7574H35.2418V44.7249Z" fill="black"/>
<path opacity="0.2" d="M33.5 44.726H33.5469V41.7585H33.5V44.726Z" fill="black"/>
<path opacity="0.2" d="M39.701 42.0711H27.3725C27.3309 42.071 27.2911 42.0545 27.2617 42.0251C27.2323 41.9958 27.2158 41.956 27.2158 41.9145C27.2158 41.873 27.2323 41.8332 27.2617 41.8038C27.2911 41.7745 27.3309 41.758 27.3725 41.7579H39.701C39.7425 41.758 39.7824 41.7745 39.8118 41.8038C39.8411 41.8332 39.8576 41.873 39.8576 41.9145C39.8576 41.956 39.8411 41.9958 39.8118 42.0251C39.7824 42.0545 39.7425 42.071 39.701 42.0711Z" fill="white"/>
<path d="M39.8249 38.2529H27.2221C27.0978 38.2529 26.9971 38.3537 26.9971 38.478V41.3497C26.9971 41.474 27.0978 41.5747 27.2221 41.5747H39.8249C39.9492 41.5747 40.05 41.474 40.05 41.3497V38.478C40.05 38.3537 39.9492 38.2529 39.8249 38.2529Z" fill="#FFE162"/>
<path opacity="0.2" d="M28.0965 38.4436H27.5801V41.4111H28.0965V38.4436Z" fill="black"/>
<path opacity="0.2" d="M29.2702 38.4294H28.8945V41.397H29.2702V38.4294Z" fill="black"/>
<path opacity="0.2" d="M30.3516 38.4441H30.1631V41.4116H30.3516V38.4441Z" fill="black"/>
<path opacity="0.2" d="M31.8061 38.4294H31.7124V41.397H31.8061V38.4294Z" fill="black"/>
<path opacity="0.2" d="M38.9494 41.3965H39.4658V38.4289H38.9494V41.3965Z" fill="black"/>
<path opacity="0.2" d="M37.7762 41.4107H38.1519V38.4432H37.7762V41.4107Z" fill="black"/>
<path opacity="0.2" d="M36.6953 41.3965H36.8838V38.4289H36.6953V41.3965Z" fill="black"/>
<path opacity="0.2" d="M35.2418 41.4107H35.3354V38.4432H35.2418V41.4107Z" fill="black"/>
<path opacity="0.2" d="M33.5 41.4107H33.5469V38.4432H33.5V41.4107Z" fill="black"/>
<path opacity="0.2" d="M39.701 38.757H27.3725C27.3519 38.757 27.3315 38.753 27.3125 38.7451C27.2935 38.7372 27.2762 38.7257 27.2616 38.7112C27.2471 38.6966 27.2356 38.6794 27.2277 38.6604C27.2198 38.6414 27.2158 38.621 27.2158 38.6005C27.2158 38.559 27.2323 38.5192 27.2617 38.4899C27.2911 38.4605 27.3309 38.4441 27.3725 38.4441H39.701C39.7425 38.4441 39.7824 38.4605 39.8118 38.4899C39.8411 38.5192 39.8576 38.559 39.8576 38.6005C39.8577 38.621 39.8536 38.6414 39.8458 38.6604C39.8379 38.6794 39.8264 38.6966 39.8118 38.7112C39.7973 38.7257 39.78 38.7372 39.761 38.7451C39.7419 38.753 39.7216 38.757 39.701 38.757Z" fill="white"/>
<path d="M39.9797 31.5886H27.3769C27.2526 31.5886 27.1519 31.6894 27.1519 31.8137V34.6854C27.1519 34.8097 27.2526 34.9105 27.3769 34.9105H39.9797C40.104 34.9105 40.2047 34.8097 40.2047 34.6854V31.8137C40.2047 31.6894 40.104 31.5886 39.9797 31.5886Z" fill="#FFE162"/>
<path opacity="0.2" d="M28.2518 31.7798H27.7354V34.7474H28.2518V31.7798Z" fill="black"/>
<path opacity="0.2" d="M29.4254 31.7651H29.0498V34.7327H29.4254V31.7651Z" fill="black"/>
<path opacity="0.2" d="M30.5054 31.7798H30.3169V34.7473H30.5054V31.7798Z" fill="black"/>
<path opacity="0.2" d="M31.9608 31.7651H31.8672V34.7327H31.9608V31.7651Z" fill="black"/>
<path opacity="0.2" d="M39.1041 34.7321H39.6206V31.7646H39.1041V34.7321Z" fill="black"/>
<path opacity="0.2" d="M37.93 34.7468H38.3057V31.7793H37.93V34.7468Z" fill="black"/>
<path opacity="0.2" d="M36.8496 34.7321H37.0381V31.7646H36.8496V34.7321Z" fill="black"/>
<path opacity="0.2" d="M35.3951 34.7468H35.4888V31.7793H35.3951V34.7468Z" fill="black"/>
<path opacity="0.2" d="M33.6547 34.7468H33.7017V31.7793H33.6547V34.7468Z" fill="black"/>
<path opacity="0.2" d="M39.8553 32.0928H27.5268C27.4852 32.0928 27.4454 32.0763 27.416 32.047C27.3866 32.0176 27.3701 31.9778 27.3701 31.9364C27.3701 31.9158 27.3741 31.8954 27.382 31.8765C27.3899 31.8575 27.4014 31.8402 27.4159 31.8257C27.4305 31.8111 27.4478 31.7996 27.4668 31.7917C27.4858 31.7838 27.5062 31.7798 27.5268 31.7798H39.8553C39.8969 31.7798 39.9368 31.7963 39.9662 31.8256C39.9956 31.855 40.0121 31.8948 40.0121 31.9364C40.0121 31.9779 39.9955 32.0176 39.9661 32.047C39.9367 32.0763 39.8968 32.0928 39.8553 32.0928Z" fill="white"/>
<path d="M40.1809 34.9384H27.5781C27.4538 34.9384 27.353 35.0391 27.353 35.1634V38.0351C27.353 38.1594 27.4538 38.2602 27.5781 38.2602H40.1809C40.3052 38.2602 40.4059 38.1594 40.4059 38.0351V35.1634C40.4059 35.0391 40.3052 34.9384 40.1809 34.9384Z" fill="#FFE162"/>
<path opacity="0.2" d="M28.4525 35.1302H27.936V38.0977H28.4525V35.1302Z" fill="black"/>
<path opacity="0.2" d="M29.6261 35.116H29.2505V38.0835H29.6261V35.116Z" fill="black"/>
<path opacity="0.2" d="M30.7071 35.1302H30.5186V38.0977H30.7071V35.1302Z" fill="black"/>
<path opacity="0.2" d="M32.162 35.116H32.0684V38.0835H32.162V35.116Z" fill="black"/>
<path opacity="0.2" d="M39.3053 38.083H39.8218V35.1154H39.3053V38.083Z" fill="black"/>
<path opacity="0.2" d="M38.1317 38.0973H38.5073V35.1298H38.1317V38.0973Z" fill="black"/>
<path opacity="0.2" d="M37.0507 38.083H37.2393V35.1154H37.0507V38.083Z" fill="black"/>
<path opacity="0.2" d="M35.5973 38.0973H35.6909V35.1298H35.5973V38.0973Z" fill="black"/>
<path opacity="0.2" d="M33.8559 38.098H33.9028V35.1305H33.8559V38.098Z" fill="black"/>
<path opacity="0.2" d="M40.0576 35.4434H27.7286C27.687 35.4434 27.6471 35.4269 27.6177 35.3975C27.5883 35.3682 27.5718 35.3284 27.5718 35.2868C27.5718 35.2453 27.5883 35.2055 27.6177 35.1761C27.6471 35.1467 27.687 35.1302 27.7286 35.1302H40.0576C40.0992 35.1303 40.1391 35.1468 40.1685 35.1762C40.1979 35.2055 40.2144 35.2453 40.2145 35.2868C40.2144 35.3283 40.1979 35.3681 40.1685 35.3975C40.1391 35.4268 40.0992 35.4434 40.0576 35.4434Z" fill="white"/>
<path d="M24.1477 54.8243H11.5449C11.4206 54.8243 11.3198 54.925 11.3198 55.0493V57.9211C11.3198 58.0454 11.4206 58.1461 11.5449 58.1461H24.1477C24.272 58.1461 24.3727 58.0454 24.3727 57.9211V55.0493C24.3727 54.925 24.272 54.8243 24.1477 54.8243Z" fill="#FFE162"/>
<path opacity="0.2" d="M12.4193 55.0165H11.9028V57.984H12.4193V55.0165Z" fill="black"/>
<path opacity="0.2" d="M13.5944 55.0023H13.2188V57.9698H13.5944V55.0023Z" fill="black"/>
<path opacity="0.2" d="M14.6744 55.0165H14.4858V57.984H14.6744V55.0165Z" fill="black"/>
<path opacity="0.2" d="M16.1293 55.0023H16.0356V57.9698H16.1293V55.0023Z" fill="black"/>
<path opacity="0.2" d="M23.2731 57.9689H23.7896V55.0014H23.2731V57.9689Z" fill="black"/>
<path opacity="0.2" d="M22.099 57.9836H22.4746V55.0161H22.099V57.9836Z" fill="black"/>
<path opacity="0.2" d="M21.018 57.9689H21.2065V55.0014H21.018V57.9689Z" fill="black"/>
<path opacity="0.2" d="M19.5641 57.9836H19.6577V55.0161H19.5641V57.9836Z" fill="black"/>
<path opacity="0.2" d="M17.8227 57.9836H17.8696V55.0161H17.8227V57.9836Z" fill="black"/>
<path opacity="0.2" d="M24.0237 55.3297H11.6954C11.6748 55.3297 11.6544 55.3257 11.6354 55.3178C11.6163 55.31 11.599 55.2984 11.5845 55.2839C11.5699 55.2693 11.5583 55.2521 11.5505 55.2331C11.5426 55.2141 11.5386 55.1937 11.5386 55.1731C11.5386 55.1316 11.5551 55.0918 11.5845 55.0624C11.6139 55.033 11.6538 55.0165 11.6954 55.0165H24.0237C24.0653 55.0165 24.1052 55.033 24.1346 55.0624C24.164 55.0918 24.1806 55.1316 24.1806 55.1731C24.1806 55.1937 24.1766 55.2141 24.1687 55.2331C24.1608 55.2521 24.1493 55.2693 24.1347 55.2839C24.1201 55.2984 24.1028 55.31 24.0838 55.3178C24.0647 55.3257 24.0443 55.3297 24.0237 55.3297Z" fill="white"/>
<path d="M24.3264 51.5097H11.7236C11.5993 51.5097 11.4985 51.6105 11.4985 51.7348V54.6065C11.4985 54.7308 11.5993 54.8316 11.7236 54.8316H24.3264C24.4507 54.8316 24.5514 54.7308 24.5514 54.6065V51.7348C24.5514 51.6105 24.4507 51.5097 24.3264 51.5097Z" fill="#FFE162"/>
<path opacity="0.2" d="M12.5985 51.7027H12.082V54.6702H12.5985V51.7027Z" fill="black"/>
<path opacity="0.2" d="M13.7711 51.6881H13.3955V54.6556H13.7711V51.6881Z" fill="black"/>
<path opacity="0.2" d="M14.8531 51.7023H14.6646V54.6699H14.8531V51.7023Z" fill="black"/>
<path opacity="0.2" d="M16.307 51.6881H16.2134V54.6556H16.307V51.6881Z" fill="black"/>
<path opacity="0.2" d="M23.4513 54.6551H23.9678V51.6876H23.4513V54.6551Z" fill="black"/>
<path opacity="0.2" d="M22.2772 54.6694H22.6528V51.7019H22.2772V54.6694Z" fill="black"/>
<path opacity="0.2" d="M21.1963 54.6551H21.3848V51.6876H21.1963V54.6551Z" fill="black"/>
<path opacity="0.2" d="M19.7418 54.6694H19.8354V51.7019H19.7418V54.6694Z" fill="black"/>
<path opacity="0.2" d="M18.0024 54.6694H18.0493V51.7019H18.0024V54.6694Z" fill="black"/>
<path opacity="0.2" d="M24.2024 52.0155H11.874C11.8324 52.0155 11.7925 51.999 11.7632 51.9696C11.7338 51.9402 11.7173 51.9004 11.7173 51.8589C11.7173 51.8384 11.7213 51.818 11.7292 51.799C11.737 51.78 11.7486 51.7628 11.7631 51.7482C11.7777 51.7337 11.7949 51.7222 11.814 51.7143C11.833 51.7064 11.8534 51.7024 11.874 51.7024H24.2024C24.244 51.7024 24.2839 51.7189 24.3133 51.7482C24.3428 51.7776 24.3593 51.8174 24.3593 51.8589C24.3592 51.9005 24.3427 51.9402 24.3133 51.9696C24.2839 51.999 24.244 52.0155 24.2024 52.0155Z" fill="white"/>
<path d="M23.614 48.1948H11.0112C10.8869 48.1948 10.7861 48.2956 10.7861 48.4199V51.2916C10.7861 51.4159 10.8869 51.5167 11.0112 51.5167H23.614C23.7383 51.5167 23.839 51.4159 23.839 51.2916V48.4199C23.839 48.2956 23.7383 48.1948 23.614 48.1948Z" fill="#FFE162"/>
<path opacity="0.2" d="M11.8866 48.3868H11.3701V51.3543H11.8866V48.3868Z" fill="black"/>
<path opacity="0.2" d="M13.0597 48.3717H12.6841V51.3392H13.0597V48.3717Z" fill="black"/>
<path opacity="0.2" d="M14.1402 48.3867H13.9517V51.3542H14.1402V48.3867Z" fill="black"/>
<path opacity="0.2" d="M15.5946 48.3717H15.501V51.3392H15.5946V48.3717Z" fill="black"/>
<path opacity="0.2" d="M22.7389 51.3391H23.2554V48.3716H22.7389V51.3391Z" fill="black"/>
<path opacity="0.2" d="M21.5638 51.3534H21.9395V48.3859H21.5638V51.3534Z" fill="black"/>
<path opacity="0.2" d="M20.4843 51.3391H20.6729V48.3716H20.4843V51.3391Z" fill="black"/>
<path opacity="0.2" d="M19.0294 51.3534H19.123V48.3859H19.0294V51.3534Z" fill="black"/>
<path opacity="0.2" d="M17.289 51.3545H17.3359V48.387H17.289V51.3545Z" fill="black"/>
<path opacity="0.2" d="M23.4905 48.6999H11.1622C11.1416 48.6999 11.1212 48.6959 11.1022 48.688C11.0831 48.6801 11.0658 48.6686 11.0513 48.6541C11.0367 48.6395 11.0251 48.6222 11.0173 48.6032C11.0094 48.5842 11.0053 48.5639 11.0054 48.5433C11.0054 48.5018 11.0219 48.4619 11.0513 48.4326C11.0807 48.4032 11.1206 48.3867 11.1622 48.3867H23.4905C23.5321 48.3867 23.572 48.4032 23.6014 48.4326C23.6308 48.4619 23.6474 48.5018 23.6474 48.5433C23.6474 48.5639 23.6434 48.5842 23.6355 48.6032C23.6276 48.6222 23.6161 48.6395 23.6015 48.6541C23.5869 48.6686 23.5696 48.6801 23.5506 48.688C23.5315 48.6959 23.5111 48.6999 23.4905 48.6999Z" fill="white"/>
</svg>
