<svg width="62" height="60" viewBox="0 0 62 60" fill="none" xmlns="http://www.w3.org/2000/svg">
<path d="M31 60C48.1208 60 62 58.9928 62 57.7504C62 56.508 48.1208 55.5008 31 55.5008C13.8792 55.5008 0 56.508 0 57.7504C0 58.9928 13.8792 60 31 60Z" fill="#F5F5F5" fill-opacity="0.5"/>
<path d="M25.4 3.42747C25.6683 6.80235 29.552 11.1915 30.7978 12.5196C30.8468 12.572 30.9059 12.6137 30.9715 12.6423C31.0372 12.6708 31.108 12.6856 31.1795 12.6856C31.2511 12.6856 31.3219 12.6708 31.3875 12.6423C31.4532 12.6137 31.5123 12.572 31.5612 12.5196C32.8079 11.1915 36.6908 6.80235 36.9591 3.42747C36.9681 3.32387 36.9468 3.21988 36.898 3.12817C36.8492 3.03646 36.7748 2.96098 36.6841 2.91092L31.4294 0.0633165C31.3526 0.0217568 31.2668 0 31.1795 0C31.0923 0 31.0064 0.0217568 30.9296 0.0633165L25.675 2.91092C25.5842 2.96098 25.5099 3.03646 25.4611 3.12817C25.4122 3.21988 25.391 3.32387 25.4 3.42747Z" fill="#FFE162"/>
<path opacity="0.3" d="M30.7888 11.2397C29.1979 9.44115 26.9114 6.44573 26.3637 4.0527C26.3381 3.9418 26.3488 3.8256 26.3941 3.72127C26.4395 3.61694 26.517 3.53002 26.6154 3.47337L30.9176 0.98994C30.9974 0.943963 31.0878 0.919769 31.1798 0.919769C31.2718 0.919769 31.3622 0.943963 31.442 0.98994L35.744 3.47337C35.8422 3.53006 35.9197 3.61695 35.9651 3.72122C36.0104 3.8255 36.0211 3.94163 35.9957 4.0525C35.4488 6.44832 33.1627 9.44254 31.5716 11.2399C31.5225 11.2955 31.4622 11.34 31.3947 11.3704C31.3272 11.4009 31.2541 11.4166 31.1801 11.4166C31.1062 11.4166 31.033 11.4008 30.9656 11.3703C30.8981 11.3398 30.8379 11.2953 30.7888 11.2397Z" fill="#FFE162"/>
<path opacity="0.3" d="M30.7888 11.2397C29.1979 9.44115 26.9114 6.44573 26.3637 4.0527C26.3381 3.9418 26.3488 3.8256 26.3941 3.72127C26.4395 3.61694 26.517 3.53002 26.6154 3.47337L30.9176 0.98994C30.9974 0.943963 31.0878 0.919769 31.1798 0.919769C31.2718 0.919769 31.3622 0.943963 31.442 0.98994L35.744 3.47337C35.8422 3.53006 35.9197 3.61695 35.9651 3.72122C36.0104 3.8255 36.0211 3.94163 35.9957 4.0525C35.4488 6.44832 33.1627 9.44254 31.5716 11.2399C31.5225 11.2955 31.4622 11.34 31.3947 11.3704C31.3272 11.4009 31.2541 11.4166 31.1801 11.4166C31.1062 11.4166 31.033 11.4008 30.9656 11.3703C30.8981 11.3398 30.8379 11.2953 30.7888 11.2397Z" fill="white"/>
<path d="M30.5927 7.61264C30.5537 7.61263 30.5151 7.60491 30.4791 7.58991C30.4431 7.57491 30.4103 7.55293 30.3828 7.52523L28.9173 6.05384C28.8632 5.99764 28.8333 5.92236 28.834 5.84422C28.8347 5.76608 28.8659 5.69134 28.9209 5.63608C28.9759 5.58083 29.0504 5.54949 29.1282 5.54881C29.206 5.54813 29.281 5.57817 29.337 5.63245L30.5927 6.89304L33.5514 3.92207C33.6073 3.86778 33.6823 3.83774 33.7602 3.83842C33.838 3.8391 33.9124 3.87044 33.9675 3.9257C34.0225 3.98095 34.0537 4.0557 34.0544 4.13383C34.0551 4.21197 34.0251 4.28725 33.9711 4.34346L30.8027 7.52503C30.7751 7.55277 30.7424 7.57478 30.7064 7.58982C30.6704 7.60485 30.6317 7.61261 30.5927 7.61264Z" fill="#585858"/>
<path d="M43.2593 15.6504H15.8203C14.5089 15.6504 13.4458 16.7178 13.4458 18.0345V54.1743C13.4458 55.491 14.5089 56.5584 15.8203 56.5584H43.2593C44.5707 56.5584 45.6338 55.491 45.6338 54.1743V18.0345C45.6338 16.7178 44.5707 15.6504 43.2593 15.6504Z" fill="#263238"/>
<path d="M45.1059 15.6504H17.667C16.3556 15.6504 15.2925 16.7178 15.2925 18.0345V54.1743C15.2925 55.491 16.3556 56.5584 17.667 56.5584H45.1059C46.4173 56.5584 47.4805 55.491 47.4805 54.1743V18.0345C47.4805 16.7178 46.4173 15.6504 45.1059 15.6504Z" fill="#01BAB3"/>
<path d="M20.918 56.5584H18.2455C18.1638 56.5584 18.0977 56.6249 18.0977 56.7069V57.1386C18.0977 57.2205 18.1638 57.287 18.2455 57.287H20.918C20.9996 57.287 21.0658 57.2205 21.0658 57.1386V56.7069C21.0658 56.6249 20.9996 56.5584 20.918 56.5584Z" fill="#263238"/>
<path d="M44.5283 56.5584H41.8558C41.7742 56.5584 41.708 56.6249 41.708 56.7069V57.1386C41.708 57.2205 41.7742 57.287 41.8558 57.287H44.5283C44.61 57.287 44.6762 57.2205 44.6762 57.1386V56.7069C44.6762 56.6249 44.61 56.5584 44.5283 56.5584Z" fill="#263238"/>
<g style="mix-blend-mode:color-dodge" opacity="0.4">
<path d="M41.8742 51.8399H20.8993C20.6588 51.8397 20.4282 51.7437 20.2582 51.573C20.0881 51.4023 19.9924 51.1708 19.9922 50.9294V21.2796C19.9924 21.0382 20.0881 20.8067 20.2582 20.6359C20.4282 20.4652 20.6588 20.3692 20.8993 20.3689H41.8742C42.1146 20.3692 42.3452 20.4652 42.5153 20.6359C42.6853 20.8067 42.781 21.0382 42.7812 21.2796V50.9284C42.7812 51.17 42.6856 51.4017 42.5155 51.5726C42.3455 51.7435 42.1148 51.8396 41.8742 51.8399ZM20.8993 20.4682C20.685 20.4685 20.4796 20.5541 20.3281 20.7062C20.1766 20.8583 20.0914 21.0645 20.0911 21.2796V50.9284C20.0914 51.1435 20.1766 51.3497 20.3281 51.5018C20.4796 51.6538 20.685 51.7394 20.8993 51.7396H41.8742C42.0884 51.7394 42.2938 51.6538 42.4453 51.5018C42.5968 51.3497 42.682 51.1435 42.6823 50.9284V21.2796C42.682 21.0645 42.5968 20.8583 42.4453 20.7062C42.2938 20.5541 42.0884 20.4685 41.8742 20.4682H20.8993Z" fill="#E6E6E6"/>
</g>
<path d="M42.3359 21.2796V50.9294C42.3359 51.0523 42.2873 51.1702 42.2007 51.2571C42.1141 51.3441 41.9967 51.3929 41.8743 51.3929H20.8994C20.777 51.3929 20.6595 51.3441 20.573 51.2571C20.4864 51.1702 20.4377 51.0523 20.4377 50.9294L20.4377 21.2794C20.4377 21.1565 20.4864 21.0386 20.573 20.9517C20.6595 20.8648 20.777 20.8159 20.8994 20.8159H41.8743C41.9967 20.816 42.1142 20.8648 42.2007 20.9518C42.2873 21.0388 42.3359 21.1567 42.3359 21.2796Z" fill="#33C7C1"/>
<path opacity="0.1" d="M42.3359 21.2796V50.9294C42.3359 51.0523 42.2873 51.1702 42.2007 51.2571C42.1141 51.3441 41.9967 51.3929 41.8743 51.3929H20.8994C20.777 51.3929 20.6595 51.3441 20.573 51.2571C20.4864 51.1702 20.4377 51.0523 20.4377 50.9294L20.4377 21.2794C20.4377 21.1565 20.4864 21.0386 20.573 20.9517C20.6595 20.8648 20.777 20.8159 20.8994 20.8159H41.8743C41.9967 20.816 42.1142 20.8648 42.2007 20.9518C42.2873 21.0388 42.3359 21.1567 42.3359 21.2796Z" fill="white"/>
<path d="M48.1739 24.0831H47.9756V25.7609H48.1739V24.0831Z" fill="#01BAB3"/>
<path d="M48.1739 18.0345H47.9756V22.3171H48.1739V18.0345Z" fill="#01BAB3"/>
<path opacity="0.1" d="M31.3865 43.4586C35.113 43.4586 38.1339 40.4255 38.1339 36.684C38.1339 32.9425 35.113 29.9094 31.3865 29.9094C27.6601 29.9094 24.6392 32.9425 24.6392 36.684C24.6392 40.4255 27.6601 43.4586 31.3865 43.4586Z" fill="black"/>
<path d="M31.3867 26.6231C32.2974 26.6231 33.0356 25.8819 33.0356 24.9675C33.0356 24.0532 32.2974 23.312 31.3867 23.312C30.476 23.312 29.7378 24.0532 29.7378 24.9675C29.7378 25.8819 30.476 26.6231 31.3867 26.6231Z" fill="#01BAB3"/>
<path opacity="0.6" d="M31.3769 26.6182C32.2876 26.6182 33.0258 25.877 33.0258 24.9627C33.0258 24.0483 32.2876 23.3071 31.3769 23.3071C30.4663 23.3071 29.728 24.0483 29.728 24.9627C29.728 25.877 30.4663 26.6182 31.3769 26.6182Z" fill="white"/>
<path d="M31.3866 26.2756C31.129 26.2756 30.8771 26.1989 30.6629 26.0552C30.4487 25.9115 30.2818 25.7073 30.1832 25.4683C30.0846 25.2293 30.0588 24.9664 30.109 24.7127C30.1592 24.459 30.2833 24.2259 30.4654 24.043C30.6476 23.8601 30.8797 23.7355 31.1324 23.685C31.385 23.6345 31.6469 23.6604 31.885 23.7594C32.123 23.8583 32.3264 24.0259 32.4696 24.241C32.6128 24.456 32.6892 24.7089 32.6892 24.9676C32.6889 25.3143 32.5515 25.6468 32.3073 25.892C32.0631 26.1373 31.732 26.2752 31.3866 26.2756ZM31.3866 23.759C31.1485 23.759 30.9158 23.8299 30.7179 23.9627C30.5199 24.0955 30.3656 24.2842 30.2745 24.5051C30.1834 24.7259 30.1596 24.9689 30.206 25.2033C30.2525 25.4378 30.3671 25.6531 30.5355 25.8221C30.7038 25.9911 30.9183 26.1062 31.1518 26.1529C31.3853 26.1995 31.6273 26.1756 31.8472 26.0841C32.0672 25.9926 32.2552 25.8377 32.3874 25.639C32.5197 25.4402 32.5903 25.2066 32.5903 24.9676C32.5899 24.6471 32.463 24.34 32.2373 24.1134C32.0117 23.8868 31.7057 23.7594 31.3866 23.759Z" fill="#01BAB3"/>
<path d="M19.6756 24.7092H20.4077C20.4463 24.7091 20.4844 24.7167 20.5201 24.7315C20.5557 24.7462 20.5881 24.7679 20.6153 24.7953C20.6426 24.8226 20.6642 24.8551 20.679 24.8908C20.6938 24.9266 20.7014 24.9649 20.7014 25.0036V29.0355C20.7014 29.1136 20.6705 29.1885 20.6155 29.2437C20.5605 29.2989 20.4859 29.3299 20.4081 29.3299H19.676C19.6374 29.33 19.5992 29.3225 19.5636 29.3077C19.528 29.2929 19.4956 29.2712 19.4683 29.2439C19.441 29.2165 19.4194 29.1841 19.4046 29.1483C19.3899 29.1125 19.3823 29.0742 19.3823 29.0355V25.0036C19.3823 24.9255 19.4132 24.8506 19.4682 24.7954C19.5232 24.7402 19.5978 24.7092 19.6756 24.7092Z" fill="#01BAB3"/>
<path opacity="0.6" d="M19.6756 24.7092H20.4077C20.4463 24.7091 20.4844 24.7167 20.5201 24.7315C20.5557 24.7462 20.5881 24.7679 20.6153 24.7953C20.6426 24.8226 20.6642 24.8551 20.679 24.8908C20.6938 24.9266 20.7014 24.9649 20.7014 25.0036V29.0355C20.7014 29.1136 20.6705 29.1885 20.6155 29.2437C20.5605 29.2989 20.4859 29.3299 20.4081 29.3299H19.676C19.6374 29.33 19.5992 29.3225 19.5636 29.3077C19.528 29.2929 19.4956 29.2712 19.4683 29.2439C19.441 29.2165 19.4194 29.1841 19.4046 29.1483C19.3899 29.1125 19.3823 29.0742 19.3823 29.0355V25.0036C19.3823 24.9255 19.4132 24.8506 19.4682 24.7954C19.5232 24.7402 19.5978 24.7092 19.6756 24.7092Z" fill="white"/>
<path d="M19.6756 42.8788H20.4077C20.4463 42.8788 20.4844 42.8864 20.5201 42.9011C20.5557 42.9159 20.5881 42.9376 20.6153 42.9649C20.6426 42.9923 20.6642 43.0248 20.679 43.0605C20.6938 43.0963 20.7014 43.1346 20.7014 43.1733V47.2052C20.7014 47.2833 20.6705 47.3582 20.6155 47.4134C20.5605 47.4686 20.4859 47.4996 20.4081 47.4996H19.676C19.6374 47.4997 19.5992 47.4921 19.5636 47.4774C19.528 47.4626 19.4956 47.4409 19.4683 47.4136C19.441 47.3862 19.4194 47.3537 19.4046 47.318C19.3899 47.2822 19.3823 47.2439 19.3823 47.2052V43.1733C19.3823 43.0952 19.4132 43.0203 19.4682 42.9651C19.5232 42.9099 19.5978 42.8788 19.6756 42.8788Z" fill="#01BAB3"/>
<path opacity="0.6" d="M19.6756 42.8788H20.4077C20.4463 42.8788 20.4844 42.8864 20.5201 42.9011C20.5557 42.9159 20.5881 42.9376 20.6153 42.9649C20.6426 42.9923 20.6642 43.0248 20.679 43.0605C20.6938 43.0963 20.7014 43.1346 20.7014 43.1733V47.2052C20.7014 47.2833 20.6705 47.3582 20.6155 47.4134C20.5605 47.4686 20.4859 47.4996 20.4081 47.4996H19.676C19.6374 47.4997 19.5992 47.4921 19.5636 47.4774C19.528 47.4626 19.4956 47.4409 19.4683 47.4136C19.441 47.3862 19.4194 47.3537 19.4046 47.318C19.3899 47.2822 19.3823 47.2439 19.3823 47.2052V43.1733C19.3823 43.0952 19.4132 43.0203 19.4682 42.9651C19.5232 42.9099 19.5978 42.8788 19.6756 42.8788Z" fill="white"/>
<path d="M31.3865 42.8791C35.113 42.8791 38.1339 39.846 38.1339 36.1045C38.1339 32.363 35.113 29.3299 31.3865 29.3299C27.6601 29.3299 24.6392 32.363 24.6392 36.1045C24.6392 39.846 27.6601 42.8791 31.3865 42.8791Z" fill="#01BAB3"/>
<path opacity="0.6" d="M31.3865 42.8791C35.113 42.8791 38.1339 39.846 38.1339 36.1045C38.1339 32.363 35.113 29.3299 31.3865 29.3299C27.6601 29.3299 24.6392 32.363 24.6392 36.1045C24.6392 39.846 27.6601 42.8791 31.3865 42.8791Z" fill="white"/>
<path d="M28.0474 32.4704L27.7676 32.7514L34.7266 39.7385L35.0065 39.4575L28.0474 32.4704Z" fill="#01BAB3"/>
<path d="M34.7266 32.4706L27.7676 39.4577L28.0474 39.7387L35.0065 32.7516L34.7266 32.4706Z" fill="#01BAB3"/>
<path opacity="0.2" d="M34.7051 32.4484L27.7461 39.4355L28.0259 39.7165L34.985 32.7294L34.7051 32.4484Z" fill="black"/>
<path opacity="0.2" d="M28.0259 32.4483L27.7461 32.7293L34.7051 39.7164L34.985 39.4354L28.0259 32.4483Z" fill="black"/>
<path d="M31.3657 41.2258C30.3525 41.2258 29.362 40.9242 28.5196 40.359C27.6771 39.7939 27.0205 38.9906 26.6327 38.0508C26.2449 37.1109 26.1434 36.0767 26.3411 35.079C26.5387 34.0812 27.0266 33.1647 27.743 32.4454C28.4595 31.726 29.3723 31.2361 30.366 31.0377C31.3598 30.8392 32.3898 30.941 33.3259 31.3303C34.262 31.7196 35.0621 32.3789 35.625 33.2247C36.1879 34.0706 36.4883 35.065 36.4883 36.0823C36.4868 37.4459 35.9466 38.7533 34.9863 39.7175C34.0259 40.6818 32.7239 41.2242 31.3657 41.2258ZM31.3657 31.3362C30.4308 31.3361 29.5168 31.6144 28.7394 32.1359C27.962 32.6574 27.3561 33.3986 26.9983 34.2659C26.6405 35.1331 26.5469 36.0874 26.7292 37.0081C26.9116 37.9288 27.3618 38.7745 28.0229 39.4382C28.684 40.102 29.5263 40.5541 30.4432 40.7372C31.3602 40.9204 32.3107 40.8264 33.1744 40.4672C34.0382 40.108 34.7765 39.4996 35.2959 38.7191C35.8153 37.9386 36.0926 37.021 36.0926 36.0823C36.0911 34.824 35.5926 33.6177 34.7065 32.728C33.8204 31.8382 32.6189 31.3377 31.3657 31.3362Z" fill="#01BAB3"/>
<path d="M32.8812 37.6044C33.7184 36.7639 33.7184 35.4011 32.8812 34.5606C32.0441 33.7201 30.6869 33.7201 29.8497 34.5606C29.0126 35.4011 29.0126 36.7639 29.8497 37.6044C30.6869 38.4449 32.0441 38.4449 32.8812 37.6044Z" fill="#01BAB3"/>
<path opacity="0.2" d="M31.3657 41.2258C30.3525 41.2258 29.362 40.9242 28.5196 40.359C27.6771 39.7939 27.0205 38.9906 26.6327 38.0508C26.2449 37.1109 26.1434 36.0767 26.3411 35.079C26.5387 34.0812 27.0266 33.1647 27.743 32.4454C28.4595 31.726 29.3723 31.2361 30.366 31.0377C31.3598 30.8392 32.3898 30.941 33.3259 31.3303C34.262 31.7196 35.0621 32.3789 35.625 33.2247C36.1879 34.0706 36.4883 35.065 36.4883 36.0823C36.4868 37.4459 35.9466 38.7533 34.9863 39.7175C34.0259 40.6818 32.7239 41.2242 31.3657 41.2258ZM31.3657 31.3362C30.4308 31.3361 29.5168 31.6144 28.7394 32.1359C27.962 32.6574 27.3561 33.3986 26.9983 34.2659C26.6405 35.1331 26.5469 36.0874 26.7292 37.0081C26.9116 37.9288 27.3618 38.7745 28.0229 39.4382C28.684 40.102 29.5263 40.5541 30.4432 40.7372C31.3602 40.9204 32.3107 40.8264 33.1744 40.4672C34.0382 40.108 34.7765 39.4996 35.2959 38.7191C35.8153 37.9386 36.0926 37.021 36.0926 36.0823C36.0911 34.824 35.5926 33.6177 34.7065 32.728C33.8204 31.8382 32.6189 31.3377 31.3657 31.3362Z" fill="black"/>
<path opacity="0.2" d="M32.8812 37.6044C33.7184 36.7639 33.7184 35.4011 32.8812 34.5606C32.0441 33.7201 30.6869 33.7201 29.8497 34.5606C29.0126 35.4011 29.0126 36.7639 29.8497 37.6044C30.6869 38.4449 32.0441 38.4449 32.8812 37.6044Z" fill="black"/>
</svg>
