<svg width="63" height="60" viewBox="0 0 63 60" fill="none" xmlns="http://www.w3.org/2000/svg">
<path d="M31.5 60C48.897 60 63 59.1789 63 58.1661C63 57.1532 48.897 56.3321 31.5 56.3321C14.103 56.3321 0 57.1532 0 58.1661C0 59.1789 14.103 60 31.5 60Z" fill="#F5F5F5" fill-opacity="0.5"/>
<path d="M33.2265 15.9536C32.8668 16.8231 30.7538 16.7648 28.5385 15.8535C26.3231 14.9422 24.8181 13.4987 25.1783 12.6295C25.2616 12.428 25.4941 11.6754 25.7433 11.5706C26.5689 11.2234 28.139 12.0053 29.8408 12.7047C31.4248 13.3563 33.2351 13.775 33.5164 14.6326C33.6868 15.1539 33.329 15.7059 33.2265 15.9536Z" fill="#FFE162"/>
<path opacity="0.2" d="M33.5171 14.6334C33.6516 15.3156 33.3546 15.6422 33.2264 15.9534C33.0939 16.2744 32.7228 16.4683 32.1984 16.5404C32.135 16.5507 32.0684 16.5566 32.0003 16.5622C31.5976 16.5863 31.1935 16.5652 30.7955 16.4996C30.7385 16.4926 30.6818 16.4819 30.6241 16.4718C30.1563 16.3883 29.6954 16.2701 29.2453 16.1182C29.1934 16.1008 29.1411 16.0822 29.0888 16.0634C28.9073 15.9998 28.7223 15.9306 28.5384 15.8541C28.3545 15.7776 28.1766 15.6992 28.0023 15.6161C27.9521 15.5933 27.9028 15.5685 27.8543 15.545C27.4442 15.3435 27.0493 15.1127 26.6727 14.8544C26.6267 14.8234 26.5836 14.7913 26.5398 14.7614C26.2106 14.5288 25.9087 14.2601 25.6399 13.9602C25.5996 13.9154 25.5629 13.8711 25.5276 13.8264C25.178 13.3846 25.0402 12.9642 25.1785 12.6295C25.2682 12.4127 25.4643 11.6758 25.7424 11.5698C26.0862 11.4721 26.4505 11.4714 26.7947 11.568C26.848 11.5797 26.9034 11.5923 26.9592 11.6064C27.779 11.8133 28.7951 12.275 29.8399 12.7052C31.0723 13.2121 32.5298 13.738 33.2433 14.3458C33.286 14.3815 33.3269 14.4194 33.3658 14.4592C33.4208 14.5132 33.4713 14.5714 33.5171 14.6334Z" fill="black"/>
<g opacity="0.2">
<path d="M27.0348 11.4711L26.9595 11.6064L25.6401 13.9602C25.5998 13.9154 25.5631 13.8711 25.5278 13.8264L26.795 11.568L26.8925 11.3929L27.0348 11.4711Z" fill="black"/>
</g>
<g opacity="0.2">
<path d="M28.0319 12.4298L26.6724 14.8549C26.6265 14.8239 26.5834 14.7918 26.5396 14.7619L27.8911 12.3499L28.0319 12.4298Z" fill="black"/>
</g>
<g opacity="0.2">
<path d="M30.5325 13.8225L29.2453 16.1182C29.1935 16.1009 29.1412 16.0822 29.0889 16.0634L30.3902 13.7428L30.5325 13.8225Z" fill="black"/>
</g>
<g opacity="0.2">
<path d="M29.3698 13.1751L28.002 15.6163C27.9518 15.5934 27.9026 15.5686 27.854 15.5452L29.2275 13.0954L29.3698 13.1751Z" fill="black"/>
</g>
<g opacity="0.2">
<path d="M32.0483 14.2662L30.7954 16.4995C30.7384 16.4926 30.6817 16.4819 30.624 16.4718L31.906 14.1865L32.0483 14.2662Z" fill="black"/>
</g>
<path d="M33.5073 15.1889C33.1476 16.0584 31.0601 16.0244 28.8446 15.1131C26.6291 14.2018 25.1242 12.7583 25.4844 11.8891C25.8446 11.02 27.9316 11.0536 30.1471 11.9649C32.3626 12.8762 33.8669 14.3202 33.5073 15.1889Z" fill="#FFE162"/>
<path opacity="0.2" d="M32.7537 14.8791C32.4997 15.4935 30.8724 15.4068 29.1191 14.6857C27.3658 13.9646 26.1506 12.8819 26.404 12.2676C26.6575 11.6532 28.2854 11.7399 30.0387 12.462C31.792 13.1841 33.0078 14.2648 32.7537 14.8791Z" fill="white"/>
<path d="M44.4237 8.08999C45.0011 8.83345 43.8994 10.6326 42.0046 12.0958C40.1098 13.5591 38.1055 14.1425 37.5284 13.3988C37.3945 13.2265 36.8555 12.651 36.8881 12.3834C36.9968 11.4964 38.458 10.5271 39.9134 9.40242C41.2682 8.35618 42.5329 6.99838 43.4193 7.18194C43.9569 7.29405 44.2591 7.87809 44.4237 8.08999Z" fill="#FFE162"/>
<path opacity="0.2" d="M43.4196 7.18192C44.08 7.40484 44.2168 7.82379 44.4234 8.08916C44.6367 8.36344 44.6211 8.78045 44.4234 9.27053C44.401 9.33047 44.3734 9.3909 44.344 9.45262C44.1645 9.81291 43.9451 10.152 43.6901 10.4637C43.6556 10.5096 43.6182 10.5531 43.5807 10.5983C43.2754 10.9615 42.9432 11.3013 42.5871 11.6151C42.5465 11.6514 42.5041 11.6874 42.4617 11.7232C42.3155 11.8486 42.1639 11.9743 42.0058 12.0958C41.8477 12.2173 41.6911 12.3317 41.5324 12.4412C41.4874 12.4736 41.4414 12.5034 41.3969 12.5339C41.0176 12.7883 40.6204 13.0151 40.2083 13.2125C40.1584 13.2368 40.1092 13.258 40.0621 13.2812C39.696 13.4502 39.3121 13.5776 38.9175 13.6611C38.8584 13.6737 38.8017 13.6835 38.7452 13.6916C38.1869 13.7745 37.7527 13.6844 37.5303 13.3985C37.3863 13.213 36.8427 12.6767 36.889 12.3835C36.9749 12.0375 37.1555 11.722 37.4107 11.4724C37.4474 11.432 37.4859 11.3902 37.526 11.3489C38.1138 10.7427 39.0207 10.0935 39.9142 9.40337C40.9685 8.58944 42.1507 7.59018 43.0345 7.27539C43.0869 7.25613 43.1402 7.23953 43.1942 7.22566C43.2681 7.20525 43.3434 7.19063 43.4196 7.18192Z" fill="black"/>
<g opacity="0.2">
<path d="M37.4438 11.2169L37.524 11.3492L38.9155 13.6614C38.8564 13.6741 38.7997 13.6838 38.7431 13.6919L37.4087 11.4724L37.3052 11.3003L37.4438 11.2169Z" fill="black"/>
</g>
<g opacity="0.2">
<path d="M38.7743 10.8307L40.2076 13.2122C40.1577 13.2365 40.1085 13.2577 40.0614 13.2809L38.6353 10.9119L38.7743 10.8307Z" fill="black"/>
</g>
<g opacity="0.2">
<path d="M41.2296 9.36063L42.5863 11.6159C42.5457 11.6522 42.5033 11.6882 42.4609 11.724L41.0894 9.44374L41.2296 9.36063Z" fill="black"/>
</g>
<g opacity="0.2">
<path d="M40.0878 10.0441L41.5313 12.4419C41.4863 12.4743 41.4403 12.5041 41.3958 12.5345L39.9478 10.1279L40.0878 10.0441Z" fill="black"/>
</g>
<g opacity="0.2">
<path d="M42.3697 8.26996L43.6894 10.4645C43.6549 10.5104 43.6176 10.554 43.58 10.5992L42.2295 8.35339L42.3697 8.26996Z" fill="black"/>
</g>
<path d="M41.5132 11.4652C43.4088 10.0026 44.4777 8.21394 43.9005 7.47003C43.3233 6.72612 41.3187 7.30869 39.4231 8.77123C37.5274 10.2338 36.4586 12.0225 37.0358 12.7664C37.613 13.5103 39.6176 12.9277 41.5132 11.4652Z" fill="#FFE162"/>
<path opacity="0.2" d="M41.2781 11.0141C42.7783 9.8567 43.6638 8.4923 43.256 7.96666C42.8481 7.44102 41.3014 7.95318 39.8012 9.11062C38.3011 10.268 37.4156 11.6324 37.8234 12.1581C38.2312 12.6837 39.778 12.1716 41.2781 11.0141Z" fill="white"/>
<path d="M36.5803 4.60611C36.39 5.67229 33.9984 6.12462 31.2816 5.64297C28.5647 5.16132 26.5163 3.90478 26.7066 2.8386C26.7508 2.59138 26.8268 1.68834 27.0814 1.50868C27.9246 0.915889 29.8836 1.41066 31.9707 1.78117C33.9133 2.12593 36.0533 2.15379 36.5809 3.04986C36.901 3.59356 36.6346 4.30219 36.5803 4.60611Z" fill="#FFE162"/>
<path opacity="0.2" d="M36.5817 3.04955C36.9011 3.78409 36.6481 4.22411 36.58 4.6058C36.51 4.99932 36.1414 5.30843 35.5681 5.51823C35.4995 5.54545 35.4264 5.56861 35.3508 5.59129C34.9037 5.71692 34.4438 5.79229 33.9798 5.816C33.9148 5.82216 33.8479 5.8241 33.7801 5.82702C33.2333 5.84758 32.6856 5.82748 32.1417 5.76691C32.0793 5.76027 32.0158 5.75185 31.9523 5.74358C31.7325 5.71653 31.5073 5.68396 31.2815 5.64314C31.0556 5.60231 30.8363 5.55743 30.6199 5.50673C30.5577 5.49344 30.4963 5.4774 30.4358 5.46315C29.9249 5.33685 29.4237 5.17393 28.9363 4.97566C28.877 4.95201 28.8206 4.92706 28.7638 4.90357C28.3363 4.72265 27.9305 4.49441 27.5541 4.22313C27.4977 4.18263 27.4454 4.14213 27.3949 4.10001C26.8925 3.68883 26.634 3.24963 26.707 2.8391C26.7544 2.5734 26.7934 1.69613 27.0806 1.50885C27.3679 1.32157 27.7752 1.25158 28.2639 1.24963C28.3267 1.24963 28.3922 1.24963 28.4588 1.25239C29.432 1.28479 30.6886 1.5547 31.9703 1.78232C33.4812 2.05077 35.2509 2.28454 36.2034 2.79406C36.2604 2.82358 36.3158 2.85603 36.3693 2.89126C36.4442 2.93838 36.5152 2.9913 36.5817 3.04955Z" fill="black"/>
<g opacity="0.2">
<path d="M28.5094 1.08082L28.458 1.25141L27.5537 4.22281C27.4974 4.1823 27.4451 4.1418 27.3945 4.09968L28.2632 1.24833L28.3305 1.02719L28.5094 1.08082Z" fill="black"/>
</g>
<g opacity="0.2">
<path d="M29.8679 1.91466L28.9362 4.97564C28.8769 4.95199 28.8205 4.92704 28.7637 4.90355L29.6897 1.85876L29.8679 1.91466Z" fill="black"/>
</g>
<g opacity="0.2">
<path d="M33.0239 2.86892L32.1416 5.76692C32.0792 5.76028 32.0157 5.75185 31.9521 5.74359L32.8442 2.814L33.0239 2.86892Z" fill="black"/>
</g>
<g opacity="0.2">
<path d="M31.5572 2.42536L30.6201 5.50692C30.5579 5.49364 30.4965 5.4776 30.436 5.46334L31.3773 2.37061L31.5572 2.42536Z" fill="black"/>
</g>
<g opacity="0.2">
<path d="M34.8386 2.9966L33.9795 5.81554C33.9145 5.8217 33.8475 5.82364 33.7798 5.82656L34.6587 2.94119L34.8386 2.9966Z" fill="black"/>
</g>
<path d="M36.7076 3.67689C36.898 2.61065 34.8497 1.35536 32.1327 0.873139C29.4157 0.390912 27.0588 0.864353 26.8685 1.9306C26.6782 2.99684 28.7265 4.25213 31.4435 4.73435C34.1605 5.21658 36.5173 4.74314 36.7076 3.67689Z" fill="#FFE162"/>
<path opacity="0.2" d="M35.7866 3.51052C35.9209 2.75681 34.2859 1.83685 32.1347 1.45574C29.9836 1.07462 28.1308 1.37666 27.9966 2.13037C27.8623 2.88408 29.4973 3.80404 31.6485 4.18516C33.7996 4.56628 35.6524 4.26423 35.7866 3.51052Z" fill="white"/>
<path d="M50.7642 31.8217L34.0453 32.7916C33.4526 32.8259 32.8711 32.9675 32.3292 33.2094L14.1689 41.316C13.8504 41.4559 13.5897 41.7005 13.4303 42.0089C13.2708 42.3173 13.2223 42.6709 13.2927 43.0108L16.2971 57.1607C16.3479 57.3886 16.4503 57.6018 16.5964 57.7842C16.7425 57.9665 16.9285 58.1131 17.1401 58.2128C17.3518 58.3125 17.5835 58.3625 17.8175 58.3592C18.0515 58.3559 18.2817 58.2992 18.4904 58.1935L36.415 49.2704L52.9657 48.7125C53.1695 48.7071 53.3698 48.6586 53.5532 48.57C53.7367 48.4815 53.8991 48.355 54.0298 48.199C54.1604 48.043 54.2562 47.8611 54.3109 47.6652C54.3655 47.4694 54.3777 47.2643 54.3467 47.0634L52.1313 33.513C52.0171 32.8133 51.4847 31.8009 50.7642 31.8217Z" fill="#01BAB3"/>
<path opacity="0.1" d="M50.7642 31.8217L34.0453 32.7916C33.4526 32.8259 32.8711 32.9675 32.3292 33.2094L14.1689 41.316C13.8504 41.4559 13.5897 41.7005 13.4303 42.0089C13.2708 42.3173 13.2223 42.6709 13.2927 43.0108L16.2971 57.1607C16.3479 57.3886 16.4503 57.6018 16.5964 57.7842C16.7425 57.9665 16.9285 58.1131 17.1401 58.2128C17.3518 58.3125 17.5835 58.3625 17.8175 58.3592C18.0515 58.3559 18.2817 58.2992 18.4904 58.1935L36.415 49.2704L52.9657 48.7125C53.1695 48.7071 53.3698 48.6586 53.5532 48.57C53.7367 48.4815 53.8991 48.355 54.0298 48.199C54.1604 48.043 54.2562 47.8611 54.3109 47.6652C54.3655 47.4694 54.3777 47.2643 54.3467 47.0634L52.1313 33.513C52.0171 32.8133 51.4847 31.8009 50.7642 31.8217Z" fill="black"/>
<path d="M17.2009 22.606L8.43018 30.6739L24.1802 47.7002L32.9509 39.6323L17.2009 22.606Z" fill="#4DCFCA"/>
<path opacity="0.5" d="M32.948 39.6421L24.1738 47.7069L8.43115 30.6747L14.189 25.3819L17.2053 22.6089L17.7089 23.1526L32.948 39.6421Z" fill="#FAFAFA"/>
<path d="M17.2621 23.6505L9.51953 30.7672L24.2471 46.7004L31.9897 39.5838L17.2621 23.6505Z" stroke="#4DCFCA" stroke-miterlimit="10"/>
<path d="M22.4967 37.0572C23.3841 36.2409 23.2713 34.6795 22.2447 33.5697C21.2181 32.46 19.6666 32.2221 18.7792 33.0384C17.8917 33.8547 18.0046 35.416 19.0311 36.5258C20.0577 37.6356 21.6093 37.8735 22.4967 37.0572Z" fill="#4DCFCA"/>
<path opacity="0.1" d="M24.0814 40.7948L20.9638 41.8688L14.189 25.3818L17.2053 22.6089L17.7089 23.1526L24.0814 40.7948Z" fill="black"/>
<path d="M24.6857 15.9336L13.4688 19.9914L21.3902 41.7665L32.6072 37.7088L24.6857 15.9336Z" fill="#4DCFCA"/>
<path opacity="0.5" d="M24.6857 15.9336L13.4688 19.9914L21.3902 41.7665L32.6072 37.7088L24.6857 15.9336Z" fill="#FAFAFA"/>
<path d="M24.3359 16.9181L14.4365 20.497L21.843 40.8687L31.7424 37.2898L24.3359 16.9181Z" stroke="#4DCFCA" stroke-miterlimit="10"/>
<path d="M23.9662 31.3013C25.1011 30.8907 25.6026 29.4073 25.0863 27.988C24.5699 26.5688 23.2314 25.751 22.0964 26.1616C20.9615 26.5721 20.4601 28.0555 20.9764 29.4748C21.4927 30.8941 22.8313 31.7118 23.9662 31.3013Z" fill="#4DCFCA"/>
<path d="M50.873 32.3969L34.383 33.3233C33.7983 33.356 33.2248 33.4961 32.6911 33.7364L14.7975 41.7921C14.4823 41.934 14.2251 42.1792 14.0687 42.4869C13.9123 42.7945 13.866 43.1463 13.9376 43.4838L16.9382 57.6346C16.9862 57.8611 17.0858 58.0737 17.2292 58.2558C17.3727 58.438 17.5561 58.5848 17.7655 58.6851C17.9748 58.7854 18.2044 58.8364 18.4367 58.8342C18.6689 58.8321 18.8975 58.7767 19.1049 58.6726L36.7647 49.8L53.0901 49.2851C53.2922 49.2787 53.4906 49.2294 53.6721 49.1404C53.8535 49.0515 54.0139 48.9249 54.1423 48.7692C54.2708 48.6135 54.3645 48.4323 54.4171 48.2376C54.4698 48.0429 54.4801 47.8393 54.4475 47.6403L52.2271 34.091C52.1116 33.3913 51.5838 32.3775 50.873 32.3969Z" fill="#01BAB3"/>
<path opacity="0.2" d="M35.0537 35.803L49.202 34.9335" stroke="black" stroke-width="2" stroke-linecap="round" stroke-linejoin="round"/>
<path opacity="0.2" d="M33.3589 36.1675L35.9443 48.0071" stroke="black" stroke-width="2" stroke-linecap="round" stroke-linejoin="round"/>
<path opacity="0.2" d="M16.125 46.8561L17.9477 55.9636C17.9477 55.9636 19.345 52.3496 16.125 46.8561Z" fill="#FAFAFA"/>
<path opacity="0.2" d="M16.3638 46.9632C16.4262 47.1293 32.5539 40.2237 32.5539 40.2237C32.5975 41.7883 32.2052 43.3343 31.4204 44.6899C30.6356 46.0454 29.4892 47.1574 28.1086 47.902C23.2555 50.6173 16.3638 46.9632 16.3638 46.9632Z" fill="#FAFAFA"/>
<path d="M27.0775 47.2317C27.4633 47.2317 27.7761 46.9198 27.7761 46.535C27.7761 46.1503 27.4633 45.8384 27.0775 45.8384C26.6917 45.8384 26.3789 46.1503 26.3789 46.535C26.3789 46.9198 26.6917 47.2317 27.0775 47.2317Z" fill="#01BAB3"/>
<path opacity="0.2" d="M32.563 40.2241C32.563 40.2241 34.5632 43.225 34.0794 48.3391L32.563 40.2241Z" fill="black"/>
<path opacity="0.2" d="M15.3535 43.2792L32.3153 35.803" stroke="#FAFAFA" stroke-linecap="round" stroke-linejoin="round" stroke-dasharray="5 5"/>
<path opacity="0.2" d="M35.5283 38.4641L49.6766 37.5946" stroke="black" stroke-width="2" stroke-linecap="round" stroke-linejoin="round"/>
<path opacity="0.2" d="M36.165 41.7831L50.3133 40.9138" stroke="black" stroke-width="2" stroke-linecap="round" stroke-linejoin="round"/>
<path d="M48.1429 21.3395L44.7136 33.2419C44.6387 33.504 44.5125 33.7487 44.3425 33.9621C44.1725 34.1755 43.9618 34.3533 43.7227 34.4853C43.4836 34.6174 43.2208 34.701 42.9492 34.7315C42.6776 34.762 42.4026 34.7387 42.1401 34.663L35.5754 32.7818C35.0454 32.6296 34.5976 32.2738 34.3304 31.7926C34.0632 31.3114 33.9984 30.7442 34.1503 30.2154L37.5815 18.3112C37.7343 17.7827 38.0912 17.3363 38.5739 17.0701C39.0565 16.8039 39.6254 16.7397 40.1556 16.8915L46.7191 18.7708C47.2494 18.9232 47.6974 19.2794 47.9644 19.7611C48.2314 20.2428 48.2956 20.8106 48.1429 21.3395Z" fill="#4DCFCA"/>
<path opacity="0.2" d="M48.1429 21.3395L44.7136 33.2419C44.6387 33.504 44.5125 33.7487 44.3425 33.9621C44.1725 34.1755 43.9618 34.3533 43.7227 34.4853C43.4836 34.6174 43.2208 34.701 42.9492 34.7315C42.6776 34.762 42.4026 34.7387 42.1401 34.663L35.5754 32.7818C35.0454 32.6296 34.5976 32.2738 34.3304 31.7926C34.0632 31.3114 33.9984 30.7442 34.1503 30.2154L37.5815 18.3112C37.7343 17.7827 38.0912 17.3363 38.5739 17.0701C39.0565 16.8039 39.6254 16.7397 40.1556 16.8915L46.7191 18.7708C47.2494 18.9232 47.6974 19.2794 47.9644 19.7611C48.2314 20.2428 48.2956 20.8106 48.1429 21.3395Z" fill="black"/>
<path d="M47.573 21.4809L44.1429 33.3832C44.056 33.6861 43.9009 33.9652 43.6895 34.1993C43.4781 34.4335 43.2158 34.6164 42.9228 34.7341C42.6597 34.7597 42.3941 34.7355 42.1401 34.6629L35.5754 32.7816C35.0454 32.6294 34.5976 32.2736 34.3304 31.7924C34.0632 31.3113 33.9984 30.744 34.1503 30.2153L37.5815 18.311C37.6686 18.0084 37.8238 17.7295 38.0353 17.4957C38.2468 17.2618 38.509 17.0792 38.8019 16.9617C39.0651 16.936 39.3307 16.9602 39.5848 17.033L46.1483 18.9123C46.411 18.9876 46.6563 19.1139 46.87 19.2837C47.0838 19.4536 47.2619 19.6638 47.3942 19.9023C47.5265 20.1409 47.6104 20.403 47.641 20.6739C47.6717 20.9447 47.6486 21.219 47.573 21.4809Z" fill="#4DCFCA"/>
<path opacity="0.5" d="M47.573 21.4809L44.1429 33.3832C44.056 33.6861 43.9009 33.9652 43.6895 34.1993C43.4781 34.4335 43.2158 34.6164 42.9228 34.7341C42.6597 34.7597 42.3941 34.7355 42.1401 34.6629L35.5754 32.7816C35.0454 32.6294 34.5976 32.2736 34.3304 31.7924C34.0632 31.3113 33.9984 30.744 34.1503 30.2153L37.5815 18.311C37.6686 18.0084 37.8238 17.7295 38.0353 17.4957C38.2468 17.2618 38.509 17.0792 38.8019 16.9617C39.0651 16.936 39.3307 16.9602 39.5848 17.033L46.1483 18.9123C46.411 18.9876 46.6563 19.1139 46.87 19.2837C47.0838 19.4536 47.2619 19.6638 47.3942 19.9023C47.5265 20.1409 47.6104 20.403 47.641 20.6739C47.6717 20.9447 47.6486 21.219 47.573 21.4809Z" fill="#FAFAFA"/>
<path d="M38.3499 22.4911L37.6475 22.2937L35.121 31.2344L35.8235 31.4318L38.3499 22.4911Z" fill="#FAFAFA"/>
<path d="M36.829 31.7174L36.1274 31.5163L38.6539 22.5775L39.3554 22.7786L36.829 31.7174Z" fill="#FAFAFA"/>
<path d="M37.8495 32.01L37.1479 31.8089L39.6736 22.8701L40.3751 23.0712L37.8495 32.01Z" fill="#FAFAFA"/>
<path opacity="0.5" d="M44.4646 24.2429L43.7622 24.0455L41.2358 32.9862L41.9382 33.1836L44.4646 24.2429Z" fill="black"/>
<path d="M44.3725 21.7158L44.0232 22.9293L43.6073 22.8126C43.406 22.7558 43.2356 22.6218 43.1333 22.4399C43.031 22.258 43.0051 22.0431 43.0614 21.8422L43.2888 21.037L44.1288 21.2768C44.2192 21.3031 44.2956 21.3641 44.3412 21.4463C44.3869 21.5285 44.3981 21.6254 44.3725 21.7158Z" fill="#FAFAFA"/>
<path d="M44.1725 21.1213L43.3325 20.8815L43.5843 19.9937C43.6412 19.7929 43.7756 19.6228 43.958 19.5208C44.1405 19.4187 44.3561 19.393 44.5575 19.4493L44.9896 19.5708L44.6127 20.8782C44.6001 20.9232 44.5787 20.9652 44.5496 21.0018C44.5206 21.0385 44.4845 21.069 44.4436 21.0916C44.4026 21.1142 44.3575 21.1285 44.311 21.1336C44.2645 21.1386 44.2174 21.1345 44.1725 21.1213Z" fill="#FAFAFA"/>
<path d="M44.9688 21.5181L45.8136 21.7595L45.5894 22.5518C45.5616 22.6512 45.5144 22.7442 45.4504 22.8254C45.3865 22.9066 45.3072 22.9744 45.2169 23.025C45.1267 23.0756 45.0273 23.1079 44.9245 23.1201C44.8217 23.1323 44.7175 23.1241 44.6178 23.0961L44.1792 22.973L44.5285 21.7612C44.5414 21.7164 44.563 21.6746 44.5921 21.6381C44.6212 21.6017 44.6573 21.5713 44.6982 21.5487C44.739 21.5261 44.784 21.5118 44.8304 21.5066C44.8768 21.5013 44.9239 21.5053 44.9688 21.5181Z" fill="#FAFAFA"/>
<path d="M46.1129 20.7033L45.8578 21.604L45.013 21.3626C44.9226 21.3363 44.8462 21.2753 44.8006 21.1931C44.7549 21.1109 44.7437 21.014 44.7693 20.9236L45.1462 19.6162L45.567 19.7344C45.6667 19.7623 45.7598 19.8095 45.8412 19.8732C45.9225 19.937 45.9905 20.0161 46.0412 20.1061C46.0919 20.1961 46.1243 20.2951 46.1366 20.3976C46.1489 20.5 46.1409 20.6039 46.1129 20.7033Z" fill="#FAFAFA"/>
</svg>
